<?xml version="1.0" encoding="UTF-8"?>
<svg version="1.1" xmlns="http://www.w3.org/2000/svg" width="1024" height="1024">
<path d="M0 0 C337.92 0 675.84 0 1024 0 C1024 337.92 1024 675.84 1024 1024 C686.08 1024 348.16 1024 0 1024 C0 686.08 0 348.16 0 0 Z " fill="#EBEBEB" transform="translate(0,0)"/>
<path d="M0 0 C1.01117889 -0.00133942 2.02235779 -0.00267883 3.06417847 -0.00405884 C20.5967235 0.00095337 37.66724838 1.02231406 55.0625 3.25 C56.90734902 3.458833 58.75238899 3.66598921 60.59765625 3.87109375 C139.20071352 13.20204692 213.35248463 52.23252511 271.0625 105.25 C271.64854004 105.78560547 272.23458008 106.32121094 272.83837891 106.87304688 C286.45728604 119.33839298 286.45728604 119.33839298 291.33203125 125.203125 C293.17568659 127.3838821 295.10431134 129.47481533 297.04956055 131.56494141 C302.33935298 137.25451785 307.33073625 143.08227138 312.0625 149.25 C312.4857959 149.79543457 312.9090918 150.34086914 313.34521484 150.90283203 C326.66013429 168.09442524 338.59641068 186.19007608 349.0625 205.25 C349.54960449 206.13381348 350.03670898 207.01762695 350.53857422 207.92822266 C376.27369403 254.97562607 392.34404862 308.73324611 396.0625 362.25 C396.14709473 363.30936768 396.14709473 363.30936768 396.23339844 364.39013672 C396.68019788 370.00685512 396.91159393 375.61793824 397.0625 381.25 C397.09649902 382.51811523 397.13049805 383.78623047 397.16552734 385.09277344 C398.9490028 459.70303695 380.3765401 532.99092138 342.0625 597.25 C341.61664551 597.99958984 341.17079102 598.74917969 340.71142578 599.52148438 C328.37341134 620.1085596 313.91762761 639.25878245 298.0625 657.25 C297.23621094 658.18972656 296.40992188 659.12945313 295.55859375 660.09765625 C283.34244506 673.69027239 270.52995079 687.05086747 256.0625 698.25 C254.20519596 699.82965191 252.35122867 701.41323257 250.5 703 C232.59851751 717.90638246 212.79182797 731.04825998 192.27246094 742.06054688 C190.71169702 742.90058684 189.15546259 743.74906862 187.60253906 744.60351562 C99.48484995 793.03711343 -8.53140498 804.8315844 -105.3125 777.8125 C-109.2058759 776.67968518 -113.07570407 775.48595966 -116.9375 774.25 C-117.9078418 773.93949707 -118.87818359 773.62899414 -119.87792969 773.30908203 C-133.91114052 768.74794104 -147.50517906 763.34690522 -160.9375 757.25 C-161.84967285 756.83911133 -162.7618457 756.42822266 -163.70166016 756.00488281 C-201.05387993 739.06013989 -235.24310605 715.99258467 -265.55078125 688.41796875 C-267.14248746 686.97214724 -268.74413226 685.53719249 -270.35546875 684.11328125 C-279.8099929 675.74099198 -288.79021607 666.90734087 -296.9375 657.25 C-297.72125 656.35539063 -298.505 655.46078125 -299.3125 654.5390625 C-331.41324166 617.68796011 -355.35501885 574.04678136 -371.9375 528.25 C-372.42428223 526.91751221 -372.42428223 526.91751221 -372.92089844 525.55810547 C-380.63520138 504.22233592 -386.30681967 482.15785543 -389.8125 459.75 C-390.00344238 458.53723389 -390.19438477 457.32446777 -390.39111328 456.07495117 C-393.44440643 435.27629471 -394.31780084 414.56553765 -394.25 393.5625 C-394.24751251 392.32721558 -394.24502502 391.09193115 -394.24246216 389.81921387 C-394.18736337 372.12406026 -393.9541289 354.72899607 -390.9375 337.25 C-390.82579468 336.58792542 -390.71408936 335.92585083 -390.59899902 335.24371338 C-380.94153997 278.11216729 -361.81244024 223.35242992 -328.9375 175.25 C-328.4528125 174.54004883 -327.968125 173.83009766 -327.46875 173.09863281 C-309.98464907 147.63513425 -290.04721971 123.79908595 -266.9375 103.25 C-266.04804688 102.42242187 -265.15859375 101.59484375 -264.2421875 100.7421875 C-257.12985381 94.12750981 -249.66534792 88.11851609 -241.9375 82.25 C-241.22029785 81.7029541 -240.5030957 81.1559082 -239.76416016 80.59228516 C-223.30868392 68.09092464 -206.16135753 57.16515039 -187.9765625 47.35986328 C-186.14908965 46.36516841 -184.33890093 45.33887186 -182.53125 44.30859375 C-138.01047499 19.39568344 -86.47297082 5.70980642 -35.9375 1.25 C-34.90085205 1.15428711 -33.8642041 1.05857422 -32.79614258 0.95996094 C-21.87470907 0.05504448 -10.95310704 0.00860189 0 0 Z " fill="#030304" transform="translate(510.9375,116.75)"/>
<path d="M0 0 C1.54868709 3.09737418 1.26299815 5.57391598 1 9 C-0.4765625 12.078125 -0.4765625 12.078125 -2.625 15.25 C-3.21909668 16.13619019 -3.21909668 16.13619019 -3.82519531 17.0402832 C-7.89207305 23.02455701 -12.23650287 28.81662822 -16.56079102 34.6159668 C-20.69805863 40.17713156 -24.67673369 45.82316833 -28.5625 51.5625 C-32.71770404 57.69786461 -36.94995135 63.76019394 -41.3125 69.75 C-46.31870372 76.62665346 -51.21480364 83.57321186 -56.0625 90.5625 C-57.08174561 92.0319104 -57.08174561 92.0319104 -58.12158203 93.53100586 C-58.79044434 94.49530518 -59.45930664 95.45960449 -60.1484375 96.453125 C-71.95377935 113.47098829 -83.94794399 130.36033188 -96.41674805 146.8996582 C-100.84900515 152.78163123 -105.21386682 158.71178061 -109.57348633 164.64770508 C-113.25577276 169.65377828 -116.97285184 174.63174295 -120.71557617 179.59277344 C-128.00629253 189.26152552 -135.19073418 198.98469404 -142 209 C-142.40847168 209.58813477 -142.81694336 210.17626953 -143.23779297 210.78222656 C-144.33371011 212.37670559 -145.38717733 214.00012461 -146.4375 215.625 C-147.01371094 216.50414062 -147.58992188 217.38328125 -148.18359375 218.2890625 C-149.15970279 221.53030496 -148.5927934 223.16357285 -147.08911133 226.14746094 C-145.11470332 229.5058577 -142.91709732 232.66448821 -140.625 235.8125 C-140.09825684 236.54678223 -139.57151367 237.28106445 -139.02880859 238.03759766 C-137.91675732 239.58567022 -136.80163032 241.13153751 -135.68359375 242.67529297 C-134.05349343 244.92613624 -132.43184633 247.18281796 -130.8125 249.44140625 C-125.24591095 257.19202816 -119.61254279 264.89101506 -113.9375 272.5625 C-109.02452386 279.20573049 -104.20385268 285.90499298 -99.4597168 292.66967773 C-95.93656502 297.68954393 -92.35538362 302.66395252 -88.75 307.625 C-83.03699981 315.49561079 -77.48116737 323.46989942 -71.94677734 331.46679688 C-67.82774103 337.40739117 -63.63968228 343.2883261 -59.375 349.125 C-54.09454902 356.36389363 -49.1042433 363.77140572 -44.1640625 371.24560547 C-39.08531291 378.91604437 -33.81963447 386.43846847 -28.4765625 393.92626953 C-25.92922744 397.50382641 -23.40388394 401.09688942 -20.875 404.6875 C-17.99004419 408.78321602 -15.09842034 412.87307144 -12.1640625 416.93359375 C-11.71434082 417.5572583 -11.26461914 418.18092285 -10.80126953 418.82348633 C-9.5891393 420.50159307 -8.3728578 422.1766991 -7.15625 423.8515625 C-2.94372072 430.00246575 0.01758437 434.3681172 -1 442 C-3.13309815 444.75525177 -4.78779249 444.96325215 -8.19750977 445.55371094 C-14.87956204 446.31881775 -21.62296186 446.18553095 -28.33984375 446.203125 C-29.07148806 446.20595238 -29.80313236 446.20877975 -30.55694771 446.21169281 C-34.42525713 446.22660844 -38.29352995 446.23588732 -42.16186523 446.24023438 C-46.13373253 446.24572305 -50.10525776 446.26978115 -54.07701778 446.29820633 C-57.15443377 446.31691874 -60.23176848 446.32204275 -63.30923653 446.32357025 C-64.77271975 446.32657543 -66.23620228 446.33453079 -67.69962883 446.34775543 C-86.01085241 446.50149201 -86.01085241 446.50149201 -91.71453857 441.49505615 C-95.17771422 437.65744666 -97.86892884 433.2690191 -100.51171875 428.84375 C-106.04903914 419.79130269 -111.98194911 411.02557 -117.94482422 402.24978638 C-127.22653306 388.58429005 -136.46211164 374.89065068 -145.5 361.0625 C-145.9007373 360.44942993 -146.30147461 359.83635986 -146.71435547 359.20471191 C-148.38742354 356.64451703 -150.06016914 354.08411207 -151.73226929 351.52328491 C-157.58422994 342.56623502 -163.47675311 333.6358349 -169.36572266 324.70309448 C-171.86379243 320.9137366 -174.36106257 317.12385264 -176.85726929 313.33326721 C-178.01262819 311.5822181 -179.17077793 309.83300667 -180.3319397 308.08580017 C-182.75453591 304.43762078 -185.15224627 300.78817413 -187.41943359 297.04101562 C-188.0995752 295.93951172 -188.7797168 294.83800781 -189.48046875 293.703125 C-190.02985107 292.77661133 -190.5792334 291.85009766 -191.14526367 290.89550781 C-192.90745966 288.7211368 -192.90745966 288.7211368 -195.9074707 288.51855469 C-200.63157518 289.25400381 -203.04803166 290.72050676 -205.90600586 294.56176758 C-206.50292236 295.57907959 -207.09983887 296.5963916 -207.71484375 297.64453125 C-208.04709457 298.20212128 -208.3793454 298.7597113 -208.72166443 299.334198 C-209.43361186 300.53158245 -210.1403209 301.73209443 -210.84222412 302.93539429 C-212.32851376 305.4826272 -213.84063568 308.01414468 -215.35205078 310.54652405 C-216.12149067 311.83579046 -216.88971568 313.12578266 -217.65673828 314.41648865 C-221.12353836 320.24153088 -224.71907683 325.97925469 -228.375 331.6875 C-228.94355713 332.57590576 -229.51211426 333.46431152 -230.09790039 334.37963867 C-231.72864277 336.92189391 -233.36365522 339.46134811 -235 342 C-235.50789063 342.79003418 -236.01578125 343.58006836 -236.5390625 344.39404297 C-242.63796041 353.87966527 -248.8154984 363.30810958 -255.11865234 372.65966797 C-260.70829278 380.9546479 -266.13942058 389.33392679 -271.46337891 397.80200195 C-276.13539537 405.23040341 -280.87540598 412.61163599 -285.67529297 419.95800781 C-287.00801729 422.01235838 -288.31957476 424.07911704 -289.62890625 426.1484375 C-299.96354938 442.31538681 -299.96354938 442.31538681 -306.67056274 444.55877686 C-309.82266005 445.15582161 -312.8514929 445.14388041 -316.06005859 445.16113281 C-316.76301559 445.16609772 -317.4659726 445.17106262 -318.19023132 445.17617798 C-320.50964343 445.19075146 -322.82898718 445.19759316 -325.1484375 445.203125 C-326.76502483 445.20887996 -328.38161215 445.21463765 -329.99819946 445.22039795 C-333.38584714 445.23089392 -336.77347117 445.23674591 -340.16113281 445.24023438 C-344.49436147 445.24571935 -348.82727596 445.2697532 -353.16040611 445.29820633 C-356.49934798 445.31686126 -359.83821455 445.3220398 -363.17720413 445.32357025 C-364.77434636 445.32659034 -366.37148746 445.3345971 -367.96857834 445.34775543 C-370.20634412 445.3648779 -372.443347 445.36292112 -374.68115234 445.35644531 C-375.95260101 445.36009094 -377.22404968 445.36373657 -378.5340271 445.36749268 C-382.35150381 444.9627305 -384.7678415 444.04980174 -388 442 C-389.28530393 438.50785348 -389.21382215 436.65300041 -388.05859375 433.125 C-382.59310391 422.58911597 -376.21836476 412.68157359 -369.76367188 402.72802734 C-367.16735012 398.71206675 -364.61214693 394.6706993 -362.0625 390.625 C-361.58047119 389.86106934 -361.09844238 389.09713867 -360.60180664 388.31005859 C-351.29574474 373.55040327 -342.06106948 358.74818126 -332.9375 343.875 C-325.75248449 332.16718068 -318.40111913 320.57196515 -311 309 C-302.18720538 295.21293631 -293.65422657 281.26509949 -285.18682861 267.26446533 C-281.02103446 260.37776639 -276.83113465 253.50576684 -272.64111328 246.63378906 C-271.60289287 244.92966676 -270.56822158 243.22337568 -269.53759766 241.51464844 C-268.46095226 239.75385968 -267.35943669 238.00814857 -266.23974609 236.27441406 C-265.67980957 235.39237305 -265.11987305 234.51033203 -264.54296875 233.6015625 C-264.03145264 232.81346191 -263.51993652 232.02536133 -262.99291992 231.21337891 C-261.83837869 229.1094526 -261.83837869 229.1094526 -262.14257812 227.07348633 C-263.28251322 224.31680387 -264.68236717 221.80624013 -266.17578125 219.22265625 C-266.83280029 218.07998291 -267.48981934 216.93730957 -268.16674805 215.76000977 C-268.88186149 214.52742689 -269.59711537 213.2949255 -270.3125 212.0625 C-271.04577981 210.79184547 -271.77860456 209.52092822 -272.51098633 208.24975586 C-273.61964901 206.32592565 -274.7287951 204.40238742 -275.83995056 202.47999573 C-278.00328825 198.73669808 -280.14870795 194.98416121 -282.2734375 191.21875 C-291.93232717 174.10826186 -302.36331334 157.52034355 -312.96240234 140.98022461 C-317.04277006 134.58436006 -320.91913238 128.09334456 -324.71313477 121.5246582 C-327.49955193 116.73994314 -330.51318818 112.31263567 -334 108 C-338.16590405 114.66885308 -341.76187888 121.4307 -345.0625 128.5625 C-351.79669562 142.8716411 -359.14091556 156.85017687 -366.5546875 170.81640625 C-371.57240547 180.2769909 -376.45328735 189.80075838 -381.25 199.375 C-382.11806274 201.10423706 -382.11806274 201.10423706 -383.00366211 202.8684082 C-384.12743303 205.11998599 -385.24290439 207.37572721 -386.34960938 209.63574219 C-387.47651132 211.93288845 -388.62466601 214.21969956 -389.79101562 216.49707031 C-390.34982422 217.62467773 -390.90863281 218.75228516 -391.484375 219.9140625 C-392.24572754 221.41767334 -392.24572754 221.41767334 -393.02246094 222.95166016 C-394.22868828 226.71313734 -393.9192993 229.1868016 -393 233 C-392.34 233.66 -391.68 234.32 -391 235 C-385.62293464 234.75322647 -382.23802858 233.23805271 -377.75 230.375 C-372.05575778 226.9155269 -366.24577849 224.31231313 -360 222 C-359.19916992 221.69755371 -358.39833984 221.39510742 -357.57324219 221.08349609 C-353.280448 219.54339528 -349.62344782 218.44958954 -345 219 C-344.01 219.66 -343.02 220.32 -342 221 C-342.03437123 228.42418619 -343.90557329 232.66073947 -349 238 C-351.98070342 240.89025449 -355.00757173 243.71210286 -358.09765625 246.484375 C-359.39903311 247.65558854 -360.69968039 248.82761279 -362 250 C-362.83529236 250.75014374 -363.67058472 251.50028748 -364.53118896 252.27316284 C-374.00954238 260.8630458 -382.99873476 269.92342525 -391.99568748 279.01221848 C-394.78929013 281.83282752 -397.58739137 284.64892505 -400.38728333 287.46328735 C-401.35407208 288.43521648 -402.32085269 289.40715372 -403.28762531 290.37909889 C-403.77091474 290.86497388 -404.25420417 291.35084887 -404.75213873 291.85144734 C-411.24700366 298.38209876 -417.73678105 304.91775073 -424.21655273 311.46337891 C-428.62050638 315.91199658 -433.03168733 320.35331255 -437.45099527 324.78667891 C-439.77724249 327.12093859 -442.09854004 329.45979415 -444.41319847 331.80555344 C-446.99172903 334.41799343 -449.58259764 337.01759414 -452.17651367 339.61474609 C-452.92430084 340.37848541 -453.67208801 341.14222473 -454.4425354 341.92910767 C-461.42147058 348.86867462 -469.16212459 355.11180993 -479.25 355.25 C-484.27352831 355.1946748 -487.86291492 355.10281381 -492 352 C-497.30598504 346.5486455 -498.42470598 342.85143446 -498.3359375 335.359375 C-497.75643449 329.56434489 -495.41397503 324.74791609 -493 319.5 C-491.79514445 316.77535785 -490.61058353 314.04200565 -489.42578125 311.30859375 C-489.09161697 310.54224106 -488.7574527 309.77588837 -488.41316223 308.98631287 C-483.34002623 297.27944849 -478.69237324 285.39446314 -473.9752655 273.5409584 C-472.65583786 270.22724042 -471.33316342 266.91481911 -470.01074219 263.60229492 C-467.00408497 256.06942133 -464.00165688 248.53486741 -461 241 C-445.91530205 203.1387548 -430.58528678 165.3816887 -414.93450928 127.75061035 C-408.97227254 113.40928496 -403.15150872 99.01824554 -397.42382812 84.58154297 C-395.95065923 80.87588664 -394.46920462 77.17365036 -392.984375 73.47265625 C-387.97174622 60.97607104 -382.98658848 48.46925053 -378.0625 35.9375 C-377.62607178 34.82681152 -377.18964355 33.71612305 -376.73999023 32.57177734 C-376.32177002 31.50523926 -375.9035498 30.43870117 -375.47265625 29.33984375 C-375.0655542 28.30182617 -374.65845215 27.26380859 -374.23901367 26.19433594 C-373.37333355 23.9625017 -372.52033281 21.72572636 -371.67700195 19.48535156 C-371.0286438 17.76590332 -371.0286438 17.76590332 -370.3671875 16.01171875 C-369.79073486 14.4661731 -369.79073486 14.4661731 -369.20263672 12.8894043 C-366.97569482 7.53904753 -364.47184746 2.55397913 -359.48120117 -0.58349609 C-355.0474767 -2.38758259 -351.3178873 -2.46763521 -346.578125 -2.46875 C-345.67809753 -2.47636353 -344.77807007 -2.48397705 -343.85076904 -2.49182129 C-341.95132204 -2.50259421 -340.05181594 -2.50548684 -338.15234375 -2.50097656 C-335.27240996 -2.50000754 -332.39517245 -2.54159129 -329.515625 -2.5859375 C-310.71203295 -2.71673941 -310.71203295 -2.71673941 -304 3 C-298.60555802 8.34084437 -295.39932106 15.53305402 -291.9382019 22.19641113 C-290.3118107 25.32296742 -288.65888422 28.43537797 -287.00390625 31.546875 C-286.5008773 32.49285553 -286.5008773 32.49285553 -285.98768616 33.45794678 C-281.16504738 42.48474874 -275.93751388 51.27661879 -270.72509766 60.08203125 C-267.8406646 64.96099303 -264.98227559 69.85509948 -262.125 74.75 C-261.55330078 75.72783447 -260.98160156 76.70566895 -260.39257812 77.71313477 C-257.23634127 83.12288611 -254.10991832 88.54846779 -251.01953125 93.99609375 C-240.96460841 111.71777451 -230.57933711 129.16223974 -219.375 146.1875 C-218.87774414 146.94885254 -218.38048828 147.71020508 -217.86816406 148.49462891 C-217.4037793 149.19120605 -216.93939453 149.8877832 -216.4609375 150.60546875 C-216.05665527 151.21543701 -215.65237305 151.82540527 -215.23583984 152.45385742 C-213.25358798 154.93382602 -211.28893155 155.92776711 -208.25 156.6875 C-202.8956454 155.55484807 -200.90820113 151.39447206 -198 147 C-196.32966781 144.40767752 -194.68749767 141.79971848 -193.0546875 139.18359375 C-189.13133213 133.10463059 -184.86797054 127.25858645 -180.67529297 121.36376953 C-177.76406423 117.25614542 -174.88347369 113.1271305 -172 109 C-162.98530275 96.11287878 -153.93750051 83.25452531 -144.71240234 70.5168457 C-141.87518174 66.59920402 -139.0493229 62.67437934 -136.24804688 58.73095703 C-126.92908953 45.61609819 -117.33554573 32.70199053 -107.625 19.875 C-106.98353027 19.02284912 -106.34206055 18.17069824 -105.68115234 17.29272461 C-102.50107265 13.11102239 -99.24401233 9.00651388 -95.8359375 5.0078125 C-95.22024902 4.28480957 -94.60456055 3.56180664 -93.97021484 2.81689453 C-89.05288943 -1.71776913 -83.5205943 -1.32063715 -77.1875 -1.37890625 C-76.22336182 -1.39590073 -75.25922363 -1.4128952 -74.26586914 -1.43040466 C-71.17731318 -1.483401 -68.08876318 -1.52362485 -65 -1.5625 C-60.97908475 -1.62165012 -56.95828197 -1.6863294 -52.9375 -1.75390625 C-51.94520889 -1.77000946 -50.95291779 -1.78611267 -49.93055725 -1.80270386 C-41.45225895 -1.95613026 -32.99249793 -2.32563036 -24.52514648 -2.7722168 C-6.2244957 -3.73288534 -6.2244957 -3.73288534 0 0 Z " fill="#ECECED" transform="translate(726,291)"/>
<path d="M0 0 C0.33 0 0.66 0 1 0 C1 17.49 1 34.98 1 53 C0.34 53 -0.32 53 -1 53 C-2.61397718 49.77204564 -2.16306684 46.24176874 -2.16796875 42.6953125 C-2.17129715 41.86095673 -2.17462555 41.02660095 -2.17805481 40.16696167 C-2.18312679 38.39321443 -2.18546305 36.61945761 -2.18530273 34.84570312 C-2.18746333 32.17040472 -2.20554308 29.49553645 -2.22460938 26.8203125 C-2.25373334 17.69074809 -2.01325283 8.95868992 0 0 Z " fill="#E2E2E2" transform="translate(116,479)"/>
<path d="M0 0 C6.63827981 5.40325101 12.57190027 11.47711985 18.57714844 17.5612793 C20.0459161 19.0464282 21.52179125 20.5242531 23 22 C20 22 20 22 17.82348633 20.19580078 C17.00130615 19.37063965 16.17912598 18.54547852 15.33203125 17.6953125 C14.43935547 16.80199219 13.54667969 15.90867187 12.62695312 14.98828125 C12.16554932 14.5185791 11.70414551 14.04887695 11.22875977 13.56494141 C9.81615089 12.12871194 8.39066681 10.70629161 6.96289062 9.28515625 C0 2.26672408 0 2.26672408 0 0 Z " fill="#F6F7F6" transform="translate(220,781)"/>
<path d="M0 0 C0.33 0 0.66 0 1 0 C2.14806378 11.52164009 2.14806378 11.52164009 2 17 C1.34 17 0.68 17 0 17 C0 19.97 0 22.94 0 26 C-0.66 25.67 -1.32 25.34 -2 25 C-1.34 16.75 -0.68 8.5 0 0 Z " fill="#DDDDDD" transform="translate(906,544)"/>
<path d="M0 0 C5.58490476 4.44512827 9.79211991 9.24454091 14 15 C13.67 15.66 13.34 16.32 13 17 C10.82535122 14.54862627 8.66169267 12.08780163 6.5 9.625 C5.87996094 8.92632812 5.25992188 8.22765625 4.62109375 7.5078125 C4.03457031 6.8375 3.44804688 6.1671875 2.84375 5.4765625 C2.29912109 4.85861816 1.75449219 4.24067383 1.19335938 3.60400391 C0 2 0 2 0 0 Z " fill="#F0F1F1" transform="translate(804,243)"/>
<path d="M0 0 C0 3.96130371 -1.34877125 4.82914401 -4 7.6875 C-4.7425 8.49574219 -5.485 9.30398438 -6.25 10.13671875 C-6.8275 10.75160156 -7.405 11.36648438 -8 12 C-8.33 11.01 -8.66 10.02 -9 9 C-6.03 6.03 -3.06 3.06 0 0 Z " fill="#F1F1F1" transform="translate(805,778)"/>
<path d="M0 0 C0.66 0.33 1.32 0.66 2 1 C-1.63 4.3 -5.26 7.6 -9 11 C-9.66 10.67 -10.32 10.34 -11 10 C-7.50640535 6.40365256 -3.88901869 3.16548033 0 0 Z " fill="#F2F2F2" transform="translate(766,815)"/>
<path d="M0 0 C0.66 0.66 1.32 1.32 2 2 C0.35 5.3 -1.3 8.6 -3 12 C-3.66 11.34 -4.32 10.68 -5 10 C-4.625 7.875 -4.625 7.875 -4 6 C-3.34 6 -2.68 6 -2 6 C-1.34 4.02 -0.68 2.04 0 0 Z " fill="#E1E1E2" transform="translate(346,482)"/>
<path d="M0 0 C1.37562854 1.28965176 2.70766393 2.62689293 4 4 C4 4.66 4 5.32 4 6 C4.99 6.33 5.98 6.66 7 7 C6.34 8.32 5.68 9.64 5 11 C4.15841464 9.73461631 3.32700252 8.46246221 2.5 7.1875 C1.80390625 6.12595703 1.80390625 6.12595703 1.09375 5.04296875 C0 3 0 3 0 0 Z " fill="#E7E7E6" transform="translate(406,418)"/>
<path d="M0 0 C0.33 0.66 0.66 1.32 1 2 C-1.47812494 5.45167403 -2.79606135 7.23163306 -7 8 C-6.02133662 6.85373678 -5.04205413 5.70800212 -4.0625 4.5625 C-3.51722656 3.92441406 -2.97195313 3.28632812 -2.41015625 2.62890625 C-1.63204305 1.73008851 -0.84063472 0.84063472 0 0 Z " fill="#E1E1E2" transform="translate(795,788)"/>
<path d="M0 0 C0 0.99 0 1.98 0 3 C-3.375 3.625 -3.375 3.625 -7 4 C-7.66 3.34 -8.32 2.68 -9 2 C-2.25 0 -2.25 0 0 0 Z " fill="#E4E4E4" transform="translate(634,889)"/>
<path d="M0 0 C-0.33 0.99 -0.66 1.98 -1 3 C-3.97 3 -6.94 3 -10 3 C-4 0 -4 0 0 0 Z " fill="#E3E3E3" transform="translate(621,893)"/>
</svg>
