<?xml version="1.0" encoding="UTF-8" standalone="no"?>
<!-- Created with Inkscape (http://www.inkscape.org/) -->

<svg
   width="281.78171mm"
   height="269.33615mm"
   viewBox="0 0 281.78171 269.33615"
   version="1.1"
   id="svg1"
   xmlns="http://www.w3.org/2000/svg"
   xmlns:svg="http://www.w3.org/2000/svg">
  <defs
     id="defs1" />
  <g
     id="layer1"
     transform="translate(3.6998231,-36.574029)">
    <path
       style="fill:#ce27e6;fill-opacity:1;stroke:none;stroke-width:0.264583"
       d="m 175.15848,132.07879 c 10.24301,-10.19684 1.12143,-1.50502 95.7792,-91.810388 -30.05454,-1.287471 -58.70545,-2.070685 -90.2229,-3.43939 -1.33545,-0.05799 -5.54232,-0.848492 -5.5489,0.68475 -0.13417,31.282583 -0.0408,63.063388 -0.007,94.565028 m -7.4083,-89.429138 c -88.584523,94.621818 0.0438,-0.01544 -87.642803,93.623238 -0.933973,0.99737 87.345293,3.03474 87.362703,0.9467 0.24612,-29.52072 1.0739,-51.191011 1.0739,-75.254748 v -13.75833 c 0,-1.7757 0.442,-4.13525 -0.7938,-5.55625 m 68.2625,41.53963 c 3.3922,-0.6122 38.7617,-22.24467 42.0688,-24.6063 -2.0296,-2.33201 -10.9034,-4.57255 -11.6417,-4.30051 -10.2575,9.05551 -20.5992,19.20761 -30.4271,28.90681 M 25.742677,65.417692 c -0.444793,72.017568 0.0132,-0.07795 -0.4433,71.074898 -0.0055,0.85034 1.7486,0.8403 2.4862,0.8291 14.7664,-0.224 39.5404,0.8822 41.0104,-0.6768 7.5847,-8.0434 21.672824,-20.36917 20.6384,-21.4955 -45.256523,-49.277573 -0.248474,0.0646 -45.2446,-49.308298 -1.635315,-1.794382 -17.822248,-0.848755 -18.4471,-0.4233 m -29.4425001,25.1215 c 6.9781831,-0.340021 21.0084761,0.626654 21.0307001,-0.5765 0.05849,-3.16632 0.388733,-14.154077 0.4006,-19.2672 -1.949231,0.541748 -20.491504,17.828527 -21.4313001,19.8437 M 128.59188,247.70179 c 10.43422,-27.21166 37.52899,-101.75272 37.5708,-103.7166 -135.095737,0.47135 -0.004,0.0434 -134.762303,0.5365 -0.785838,0.003 0.142756,1.44379 0.5218,1.8409 96.527033,101.12753 -0.185842,-0.39784 96.669703,101.3392 m 39.1583,-86.2541 -13.3741,37.0416 -19.4549,52.6521 -7.7741,21.6959 -2.3507,6.35 -0.0199,2.72052 c 13.58689,7.8308 29.44232,16.54843 43.23834,24.00238 0.26687,-48.58528 0.15268,-96.36251 -0.2646,-144.4625 z"
       id="path12" />
  </g>
</svg>
